<svg width="30" height="30" viewBox="0 0 30 30" fill="none" xmlns="http://www.w3.org/2000/svg">
<path d="M23.4375 30H6.5625C2.93812 30 0 27.0619 0 23.4375V6.5625C0 2.93812 2.93812 0 6.5625 0H23.4375C27.0619 0 30 2.93812 30 6.5625V23.4375C30 27.0619 27.0619 30 23.4375 30Z" fill="#41479B"/>
<path d="M30 23.4368V21.9962L25.3465 18.9474H30V17.3684H17.3684V30H18.9473V20.4176L28.9629 26.9795C29.3176 26.4272 29.5915 25.8182 29.7685 25.1692" fill="#F5F5F5"/>
<path d="M0.44127 25.8072C0.601113 26.2197 0.801152 26.6122 1.03705 26.9795L11.0526 20.4176V30H12.6315V17.3684H0V18.9474H4.65346L0 21.9962V23.4375C0 23.6898 0.0147656 23.9386 0.0424805 24.1836" fill="#F5F5F5"/>
<path d="M0 6.78557V8.00379L4.65346 11.0527H0V12.6316H12.6316V0H11.0527V9.58242L1.03705 3.02051C0.647812 3.62654 0.35584 4.3009 0.182461 5.02148" fill="#F5F5F5"/>
<path d="M29.55 4.17006C29.3917 3.76582 29.1945 3.38104 28.9629 3.02045L18.9473 9.58242V0H17.3684V12.6316H30V11.0527H25.3465L30 8.00379V6.5625C30 6.30117 29.9842 6.04348 29.9545 5.79012" fill="#F5F5F5"/>
<path d="M17.3684 0H12.6316V12.6316H0V17.3684H12.6316V30H17.3684V17.3684H30V12.6316H17.3684V0Z" fill="#FF4B55"/>
<path d="M8.10908 18.9474L0.0424805 24.1836C0.106582 24.7498 0.24252 25.2941 0.441328 25.8072L11.0092 18.9474H8.10908V18.9474Z" fill="#FF4B55"/>
<path d="M20.1835 18.9474L29.7686 25.1693C29.9191 24.6175 30 24.037 30 23.4375V23.4369L23.0836 18.9474L20.1835 18.9474Z" fill="#FF4B55"/>
<path d="M9.47367 11.0527L0.182461 5.02148C0.063457 5.51578 0 6.0317 0 6.5625V6.78557L6.57352 11.0527H9.47367Z" fill="#FF4B55"/>
<path d="M21.8475 11.0526L29.9545 5.7901C29.8882 5.22503 29.7506 4.68186 29.5501 4.1701L18.9474 11.0526H21.8475Z" fill="#FF4B55"/>
</svg>
