<svg width="151" height="65" viewBox="0 0 151 65" fill="none" xmlns="http://www.w3.org/2000/svg">
<path d="M70.6548 25.6548H62.0001C61.2572 25.6548 60.6548 26.2572 60.6548 27.0001C60.6548 27.7431 61.2572 28.3455 62.0001 28.3455H69.1852C68.5519 31.7353 65.571 34.3094 62.0001 34.3094C57.9697 34.3094 54.6908 31.0305 54.6908 27C54.6908 22.9695 57.9697 19.6906 62.0001 19.6906C63.9525 19.6906 65.788 20.4511 67.1686 21.8315C67.6941 22.357 68.5459 22.357 69.0711 21.8315C69.5965 21.3061 69.5965 20.4543 69.0711 19.9291C67.1822 18.0402 64.6711 17 62 17C56.4859 17 52 21.4859 52 27C52 32.5141 56.4859 37 62 37C67.5141 37 72 32.5141 72 27C72.0001 26.2572 71.3978 25.6548 70.6548 25.6548Z" fill="#3A3A3A"/>
<path fill-rule="evenodd" clip-rule="evenodd" d="M103.547 11.3793H77.2964L73.7717 0.886692C73.594 0.357385 73.0919 0 72.5262 0H47.4528C44.4461 0 42 2.4109 42 5.37419V48.2465C42 51.2098 44.4461 53.6207 47.4528 53.6207H74.0361L77.5789 64.1151C77.7574 64.6435 78.2587 65 78.8238 65H103.547C106.554 65 109 62.5891 109 59.6258V16.7535C109 13.7902 106.554 11.3793 103.547 11.3793ZM47.4528 51.0345C45.8931 51.0345 44.6241 49.7838 44.6241 48.2466V5.37419C44.6241 3.83696 45.8931 2.5863 47.4528 2.5863H71.5785L80.829 30.1242C80.8296 30.1261 80.8302 30.1278 80.831 30.1297L87.8534 51.0345H47.4528ZM89.6071 40.4114C87.5747 37.9365 86.2636 36.1609 86.1583 36.0177C85.7331 35.4394 85.8637 34.631 86.4502 34.2119C87.0369 33.7926 87.8571 33.9214 88.2825 34.4995C88.3061 34.5315 89.4205 36.0406 91.194 38.2229C93.1247 35.3955 94.5304 32.7151 95.3412 31.0345H83.8987L87.7868 42.6085C88.4274 41.8912 89.0343 41.1537 89.6071 40.4114ZM76.8015 53.6207H86.6371L79.374 61.2409L76.8015 53.6207ZM103.547 62.4137C105.107 62.4137 106.376 61.163 106.376 59.6258H106.376V16.7535C106.376 15.2163 105.107 13.9656 103.547 13.9656H78.1649L83.03 28.4483H89.7569V26.1208C89.7569 25.4067 90.3443 24.8278 91.0689 24.8278C91.7935 24.8278 92.3809 25.4067 92.3809 26.1208V28.4484H97.3414H97.3484H101.04C101.765 28.4484 102.352 29.0274 102.352 29.7415C102.352 30.4556 101.765 31.0346 101.04 31.0346H98.2328C97.5128 32.6403 95.7093 36.3807 92.9284 40.3148C94.7178 42.4284 96.8838 44.8509 99.1687 47.1029C99.6811 47.6077 99.6811 48.4264 99.1687 48.9315C98.9126 49.184 98.5767 49.3103 98.241 49.3103C97.9054 49.3103 97.5695 49.1839 97.3134 48.9315C95.1227 46.7723 93.0632 44.4928 91.3229 42.4587C90.5214 43.4675 89.6568 44.4654 88.7312 45.4206L90.915 51.9211C91.0474 52.3152 90.9798 52.7482 90.7331 53.0847C90.7001 53.1299 90.6638 53.1722 90.6254 53.2125L90.6259 53.2129L81.8564 62.4137H103.547Z" fill="#3A3A3A"/>
<rect y="10" width="32" height="4" rx="2" fill="#F0394E"/>
<rect x="119" y="37" width="32" height="4" rx="2" fill="#F0394E"/>
<rect x="13" y="24" width="19" height="4" rx="2" fill="#F0394E"/>
<rect x="119" y="51" width="19" height="4" rx="2" fill="#F0394E"/>
</svg>
