<svg width="23" height="23" viewBox="0 0 23 23" fill="none" xmlns="http://www.w3.org/2000/svg">
<path fill-rule="evenodd" clip-rule="evenodd" d="M0.673834 23C0.422552 23 0.191977 22.8595 0.0759876 22.6354C-0.040002 22.4115 -0.0221035 22.1413 0.122138 21.9345L6.92113 12.1902C5.98128 11.3008 5.43555 10.0535 5.43555 8.73872C5.43555 6.12572 7.55144 4 10.1523 4C12.7532 4 14.8691 6.12572 14.8691 8.73872C14.8691 10.0583 14.3192 11.3101 13.3729 12.2002L16.2182 16.3052L17.0124 15.1652C17.1382 14.9847 17.3435 14.877 17.563 14.8765H17.5644C17.7833 14.8765 17.9884 14.9831 18.1147 15.1628L22.8764 21.9324C23.0217 22.139 23.0403 22.4096 22.9245 22.6344C22.8087 22.859 22.578 23 22.3262 23H0.673834ZM8.80469 20.2922H2.91378L1.96902 21.6461H12.4969L15.327 17.5843H11.5C11.1278 17.5843 10.8262 17.2813 10.8262 16.9074C10.8262 16.5334 11.1278 16.2304 11.5 16.2304H14.5241L10.1506 9.92075C9.93019 10.2363 7.96152 13.0579 7.66883 13.4774H10.1523C10.5245 13.4774 10.8262 13.7805 10.8262 14.1544C10.8262 14.5283 10.5245 14.8314 10.1523 14.8314H6.72407L3.85855 18.9382H8.80469C9.17687 18.9382 9.47851 19.2413 9.47851 19.6152C9.47851 19.9891 9.17687 20.2922 8.80469 20.2922ZM17.5671 16.7302L19.1202 18.9382H18.2383C17.8661 18.9382 17.5644 19.2413 17.5644 19.6152C17.5644 19.9891 17.8661 20.2922 18.2383 20.2922H20.0725L21.0248 21.6461H14.1418L17.5671 16.7302ZM10.1523 5.35392C8.29458 5.35392 6.7832 6.87232 6.7832 8.73872C6.7832 9.61101 7.11977 10.442 7.70621 11.0652L9.60064 8.35017C9.72681 8.1693 9.93264 8.06176 10.1523 8.06176H10.1534C10.3734 8.06211 10.5796 8.17035 10.7053 8.35193L12.5915 11.0728C13.1821 10.4489 13.5215 9.61471 13.5215 8.73872C13.5215 6.87232 12.0101 5.35392 10.1523 5.35392Z" fill="#8E8E8E"/>
<path d="M11 2.2623V0.737705C11 0.330238 10.5523 0 10 0C9.44766 0 9 0.330238 9 0.737705V2.2623C9 2.66976 9.44766 3 10 3C10.5523 3 11 2.66976 11 2.2623Z" fill="#8E8E8E"/>
<path d="M1 9C1 9.55234 1.33574 10 1.75 10H3.25C3.66426 10 4 9.55234 4 9C4 8.44766 3.66426 8 3.25 8H1.75C1.33574 8 1 8.44766 1 9Z" fill="#8E8E8E"/>
<path d="M16 9C16 9.55234 16.3357 10 16.75 10H18.25C18.6643 10 19 9.55234 19 9C19 8.44766 18.6643 8 18.25 8H16.75C16.3357 8 16 8.44766 16 9Z" fill="#8E8E8E"/>
<path d="M3.79431 12.0895L2.40189 12.7561C2.01757 12.9401 1.8859 13.3477 2.10779 13.6666C2.33093 13.9871 2.82326 14.0939 3.20569 13.9105L4.59811 13.2439C4.98243 13.0599 5.1141 12.6523 4.89221 12.3334C4.67033 12.0145 4.17863 11.9053 3.79431 12.0895Z" fill="#8E8E8E"/>
<path d="M16.7943 4.0895L15.402 4.7561C15.0177 4.94011 14.8858 5.3477 15.1079 5.66659C15.3306 5.98635 15.8225 6.09415 16.2057 5.91066L17.598 5.24407C17.9823 5.05988 18.1142 4.65229 17.8921 4.3334C17.6703 4.01451 17.1786 3.90532 16.7943 4.0895Z" fill="#8E8E8E"/>
<path d="M14.2439 3.59809L14.9105 2.20573C15.0947 1.82143 14.9855 1.32975 14.6666 1.10787C14.3477 0.885792 13.9401 1.01766 13.7561 1.40196L13.0895 2.79432C12.9053 3.17862 13.0145 3.6703 13.3334 3.89218C13.6511 4.11342 14.0592 3.98386 14.2439 3.59809Z" fill="#8E8E8E"/>
<path d="M7.6666 3.89213C7.98549 3.67025 8.09468 3.17856 7.9105 2.79426L7.2439 1.40208C7.05989 1.01756 6.65212 0.885899 6.3334 1.10778C6.01451 1.32986 5.90532 1.82134 6.0895 2.20586L6.7561 3.59804C6.94098 3.98444 7.34927 4.11317 7.6666 3.89213Z" fill="#8E8E8E"/>
<path d="M15.402 13.244L16.7941 13.9106C17.1774 14.0941 17.6695 13.9866 17.8922 13.6667C18.1141 13.3478 17.9824 12.9402 17.5979 12.756L16.2057 12.0894C15.8214 11.9054 15.3298 12.0146 15.1079 12.3335C14.8858 12.6524 15.0177 13.06 15.402 13.244Z" fill="#8E8E8E"/>
<path d="M4.59803 4.75613L3.20565 4.08951C2.82135 3.90532 2.32966 4.01451 2.10778 4.33342C1.88591 4.65232 2.01757 5.05993 2.40187 5.24395L3.79425 5.91057C4.1773 6.09407 4.66941 5.98661 4.89212 5.66667C5.11421 5.34776 4.98234 4.94015 4.59803 4.75613Z" fill="#8E8E8E"/>
</svg>
