<?xml version="1.0" standalone="no"?>
<!DOCTYPE svg PUBLIC "-//W3C//DTD SVG 20010904//EN"
 "http://www.w3.org/TR/2001/REC-SVG-20010904/DTD/svg10.dtd">
<svg version="1.0" xmlns="http://www.w3.org/2000/svg"
 width="256.000000pt" height="256.000000pt" viewBox="0 0 256.000000 256.000000"
 preserveAspectRatio="xMidYMid meet">
<metadata>
Created by potrace 1.11, written by Peter Selinger 2001-2013
</metadata>
<g transform="translate(0.000000,256.000000) scale(0.100000,-0.100000)"
fill="#000000" stroke="none">
<path d="M1187 2443 c-3 -2 -18 -7 -35 -9 -69 -11 -268 -107 -257 -124 2 -3
-10 -15 -26 -25 -16 -11 -29 -23 -29 -26 0 -3 -14 -21 -30 -39 -25 -28 -82
-128 -86 -150 0 -3 -4 -13 -8 -22 -4 -9 -9 -25 -11 -35 -2 -10 -4 -18 -5 -18
-4 0 -10 -44 -12 -87 -3 -44 -18 -66 -37 -54 -3 2 -29 0 -56 -6 -28 -5 -63
-12 -80 -15 -16 -3 -33 -10 -37 -16 -4 -7 -8 -9 -8 -4 0 11 -99 -41 -145 -76
-159 -123 -238 -292 -231 -497 10 -302 238 -537 551 -566 17 -1 32 -3 35 -3 3
-1 6 -18 7 -38 2 -90 52 -238 98 -289 6 -6 17 -22 25 -34 8 -13 33 -39 54 -59
21 -20 45 -42 52 -49 7 -6 17 -12 23 -12 6 0 11 -4 11 -10 0 -5 7 -10 15 -10
8 0 15 -5 15 -10 0 -6 3 -9 8 -8 4 1 23 -6 42 -14 52 -24 74 -31 88 -29 6 1
12 -2 12 -6 0 -21 276 -20 297 0 3 4 12 7 20 7 7 0 30 7 51 17 20 9 39 17 42
17 13 2 100 62 100 69 0 4 5 7 11 7 15 0 39 26 32 34 -4 3 0 6 8 6 22 1 99
113 130 192 28 67 38 113 48 213 1 6 18 11 39 12 49 2 105 12 147 27 41 14
141 67 169 88 65 51 146 143 146 165 0 7 4 13 8 13 8 0 34 59 62 140 21 60 21
231 1 302 -20 68 -51 141 -63 146 -5 2 -8 9 -8 16 0 11 -29 49 -80 104 -51 55
-170 132 -204 132 -9 0 -16 4 -16 10 0 5 -3 9 -7 9 -5 -1 -10 0 -13 1 -3 1
-12 3 -20 5 -8 2 -28 6 -45 10 -16 4 -49 7 -72 8 -31 0 -43 5 -44 16 -5 66
-25 161 -46 211 -3 8 -7 17 -7 20 -2 10 -50 85 -59 91 -5 3 -7 8 -6 10 4 5
-30 47 -55 68 -10 9 -28 27 -40 40 -12 13 -30 27 -41 32 -23 10 -58 31 -65 40
-6 6 -71 33 -85 35 -5 1 -13 3 -17 4 -5 1 -12 4 -18 5 -5 1 -11 3 -12 5 -14
10 -222 23 -231 13z m379 -873 c159 -159 290 -295 292 -302 3 -14 -184 -208
-199 -208 -5 0 -9 -4 -9 -8 0 -7 -254 -267 -348 -355 l-29 -28 -295 295 c-213
213 -292 299 -287 309 8 14 578 587 584 587 1 0 132 -130 291 -290z"/>
</g>
</svg>
