<svg width="51" height="51" viewBox="0 0 51 51" fill="none" xmlns="http://www.w3.org/2000/svg">
<path fill-rule="evenodd" clip-rule="evenodd" d="M43.3459 16.0502C45.0943 14.3021 47.9382 14.302 49.686 16.0498C51.4382 17.8017 51.4378 20.6372 49.6859 22.3889L38.8504 33.2328V46.5176C38.8504 48.9892 36.8394 51 34.3677 51H4.48274C2.01096 51 0 48.9892 0 46.5176V4.48242C0 2.01081 2.01096 0 4.48274 0H30.1413C31.3387 0 32.4645 0.466172 33.3111 1.31285L37.5374 5.53898C38.3841 6.38556 38.8504 7.51114 38.8504 8.70845V20.5491L43.3459 16.0502ZM29.9563 2.98766C29.931 2.98798 29.9072 2.98828 29.885 2.98828V8.96484H35.862L35.8623 8.90094C35.8646 8.5793 35.868 8.09576 35.4243 7.65199L31.198 3.42587C30.7496 2.97759 30.2525 2.9839 29.9563 2.98766ZM35.8619 46.5176C35.8619 47.3414 35.1917 48.0117 34.3677 48.0117H4.48274C3.65881 48.0117 2.98849 47.3414 2.98849 46.5176V4.48242C2.98849 3.65855 3.65881 2.98828 4.48274 2.98828H26.8964V10.459C26.8964 11.2841 27.5655 11.9531 28.3907 11.9531H35.8619V23.54L31.4533 27.952L29.3411 30.0641C29.1771 30.2281 29.0534 30.4281 28.9801 30.6481L26.8668 36.9873C26.6878 37.5241 26.8276 38.1161 27.2279 38.5163C27.6286 38.917 28.2208 39.056 28.757 38.8772L35.0965 36.7642C35.3166 36.6909 35.5166 36.5673 35.6806 36.4032L35.8619 36.222V46.5176ZM34.624 33.2337L32.5108 31.1207L31.7036 31.9277L30.6471 35.0973L33.8168 34.0408L34.624 33.2337ZM36.7367 31.1202L34.6236 29.0071L41.8064 21.8187L43.9196 23.9318L36.7367 31.1202ZM46.0319 21.8178L47.5723 20.2763C48.1585 19.6901 48.1554 18.7455 47.5729 18.1628C46.9904 17.5803 46.0426 17.5802 45.4596 18.1628L43.9188 19.7048L46.0319 21.8178Z" fill="#F23A4F"/>
<path d="M28.5 15H7.5C6.6716 15 6 15.6716 6 16.5C6 17.3284 6.6716 18 7.5 18H28.5C29.3284 18 30 17.3284 30 16.5C30 15.6716 29.3284 15 28.5 15Z" fill="#F23A4F"/>
<path d="M22.5 21H7.5C6.6716 21 6 21.6716 6 22.5C6 23.3284 6.6716 24 7.5 24H22.5C23.3284 24 24 23.3284 24 22.5C24 21.6716 23.3284 21 22.5 21Z" fill="#F23A4F"/>
<path d="M22.5 27H7.5C6.6716 27 6 27.6716 6 28.5C6 29.3284 6.6716 30 7.5 30H22.5C23.3284 30 24 29.3284 24 28.5C24 27.6716 23.3284 27 22.5 27Z" fill="#F23A4F"/>
<path d="M22.5 33H7.5C6.6716 33 6 33.6716 6 34.5C6 35.3284 6.6716 36 7.5 36H22.5C23.3284 36 24 35.3284 24 34.5C24 33.6716 23.3284 33 22.5 33Z" fill="#F23A4F"/>
<path d="M28.5 42H19.5C18.6716 42 18 42.6716 18 43.5C18 44.3284 18.6716 45 19.5 45H28.5C29.3284 45 30 44.3284 30 43.5C30 42.6716 29.3284 42 28.5 42Z" fill="#F23A4F"/>
</svg>
