<svg width="25" height="31" viewBox="0 0 25 31" fill="none" xmlns="http://www.w3.org/2000/svg">
<path fill-rule="evenodd" clip-rule="evenodd" d="M0.0594961 11.1628C0.656989 5.02917 5.82884 0.223996 12.0543 0.00789004C19.16 -0.239996 25 5.38511 25 12.3641C25 13.1649 24.9229 13.9467 24.7751 14.7094C24.7751 14.7094 24.7494 14.8493 24.6916 15.0972C24.4989 15.9552 24.2162 16.7752 23.85 17.5506C22.5908 20.4998 19.6932 25.413 13.1915 30.7521C12.7867 31.0826 12.2021 31.0826 11.8038 30.7521C5.30201 25.4067 2.40449 20.4934 1.15169 17.5569C0.791907 16.7815 0.502797 15.9552 0.310058 15.1035C0.245811 14.8493 0.226537 14.7158 0.226537 14.7158C0.0080989 13.5781 -0.0625723 12.3895 0.0594961 11.1628ZM8.55546 12.5102C8.55546 14.6646 10.32 16.4103 12.4976 16.4103C14.6752 16.4103 16.4398 14.6646 16.4398 12.5102C16.4398 10.3559 14.6752 8.61017 12.4976 8.61017C10.32 8.61017 8.55546 10.3559 8.55546 12.5102Z" fill="#F23A4F"/>
</svg>
