<svg width="23" height="25" viewBox="0 0 23 25" fill="none" xmlns="http://www.w3.org/2000/svg">
<path fill-rule="evenodd" clip-rule="evenodd" d="M20.7932 18.8498H20.5366V7.52449C20.5366 6.70414 19.8817 6.03657 19.0764 6.03657H8.00059V3.29876C8.00059 1.47991 6.55167 0 4.77089 0H2.20679C0.989966 0 0 1.01089 0 2.25334C0 3.49579 0.989966 4.50668 2.20679 4.50668H3.58701V17.4074C2.53472 18.1635 1.8461 19.4134 1.8461 20.8244C1.8461 23.1268 3.67966 25 5.93343 25C7.25601 25 8.43408 24.3549 9.18147 23.3564H20.7932C22.01 23.3564 23 22.3455 23 21.1031C23 19.8605 22.01 18.8498 20.7932 18.8498ZM19.0764 7.50141C19.089 7.50141 19.0993 7.51171 19.0993 7.52449V18.8496H9.53411C9.1781 18.1751 8.64578 17.6113 8.00059 17.2234V7.50141H19.0764ZM2.20679 3.04184H4.17137C4.64174 3.04184 5.02432 3.43208 5.02432 3.91159V16.7532C5.31688 16.6851 5.62104 16.6491 5.93343 16.6491C6.14756 16.6491 6.35776 16.666 6.56309 16.6985V3.29876C6.56309 2.28767 5.75917 1.46484 4.77089 1.46484H2.20679C1.78265 1.46484 1.4375 1.81866 1.4375 2.25334C1.4375 2.68822 1.78265 3.04184 2.20679 3.04184ZM5.93343 23.5352C4.47235 23.5352 3.2836 22.3192 3.2836 20.8244C3.2836 19.3298 4.47235 18.1139 5.93343 18.1139C7.39452 18.1139 8.58326 19.3298 8.58326 20.8244C8.58326 22.3192 7.39452 23.5352 5.93343 23.5352ZM9.88543 21.8916H20.7932C21.2174 21.8916 21.5625 21.5378 21.5625 21.1031C21.5625 20.6682 21.2174 20.3146 20.7932 20.3146H9.99044C10.0105 20.4817 10.0208 20.6518 10.0208 20.8244C10.0208 21.1931 9.97378 21.5509 9.88543 21.8916Z" fill="#F23A4F"/>
<path d="M6.5 20C6.22383 20 6 20.2856 6 20.6379V21.3621C6 21.7144 6.22383 22 6.5 22C6.77604 22 7 21.7144 7 21.3621V20.6379C7 20.2856 6.77604 20 6.5 20V20Z" fill="#F23A4F"/>
<path d="M11.1923 15.8077C11.3205 15.9359 11.4884 16 11.6565 16C11.8244 16 11.9926 15.9359 12.1206 15.8077L13.4999 14.4284L14.8794 15.8077C15.0076 15.9359 15.1755 16 15.3435 16C15.5114 16 15.6795 15.9361 15.8077 15.8077C16.0641 15.5514 16.0641 15.1358 15.8077 14.8794L14.4284 13.5001L15.8077 12.1206C16.0641 11.8644 16.0641 11.4486 15.8077 11.1923C15.5514 10.9359 15.1356 10.9359 14.8794 11.1923L13.5001 12.5716L12.1206 11.1923C11.8644 10.9359 11.4486 10.9359 11.1923 11.1923C10.9359 11.4486 10.9359 11.8644 11.1923 12.1206L12.5716 13.5001L11.1923 14.8794C10.9359 15.1358 10.9359 15.5514 11.1923 15.8077Z" fill="#F23A4F"/>
</svg>
