<svg width="24" height="23" viewBox="0 0 24 23" fill="none" xmlns="http://www.w3.org/2000/svg">
<path fill-rule="evenodd" clip-rule="evenodd" d="M20.8847 11.7695H19.2263L19.3139 9.83897C19.3238 9.62019 19.2479 9.40661 19.1039 9.24815C18.96 9.0897 18.7604 9 18.5518 9H1.76799C1.55933 9 1.35982 9.0897 1.21588 9.24815C1.07193 9.40674 0.996021 9.62019 1.00594 9.83897L1.34469 17.2988C1.42835 19.1423 2.50398 20.6935 4.01524 21.3981H0.762942C0.341671 21.3981 0 21.7568 0 22.1991C0 22.6413 0.341671 23 0.762942 23H19.6645C20.0857 23 20.4274 22.6413 20.4274 22.1991C20.4274 21.7568 20.0857 21.3981 19.6645 21.3981H16.3047C17.5297 20.8268 18.4677 19.6992 18.8237 18.3104H20.8847C22.6024 18.3104 24 16.8432 24 15.04C24 13.2367 22.6024 11.7695 20.8847 11.7695ZM14.4731 20.2034H5.84681C4.25277 20.2034 2.9447 18.894 2.86879 17.2225L2.56819 10.6016H17.7516L17.4512 17.2225C17.3752 18.894 16.0672 20.2034 14.4731 20.2034ZM19.0021 16.7086H20.8847C21.7611 16.7086 22.4741 15.9601 22.4741 15.04C22.4741 14.1198 21.7611 13.3713 20.8847 13.3713H19.1876C19.1803 13.3713 19.173 13.3708 19.1657 13.3704C19.1617 13.3701 19.1577 13.3698 19.1537 13.3696L19.0021 16.7086Z" fill="#F23A4F"/>
<path d="M7.63248 7.89738C7.75843 7.96686 7.8966 8 8.03307 8C8.30285 8 8.56566 7.87062 8.71291 7.63814C8.9347 7.28793 8.81033 6.83634 8.43524 6.62938C7.99665 6.38732 7.69348 5.94076 7.60355 5.40435C7.50994 4.84584 7.66626 4.28954 8.02137 3.91651C8.02452 3.91319 8.02768 3.90988 8.0307 3.90644C8.11656 3.81291 8.20241 3.72097 8.28747 3.62977C9.01714 2.84736 9.77178 2.03857 9.98845 0.861408C10.0623 0.46051 9.77402 0.0796193 9.34476 0.0107571C8.91538 -0.0581051 8.50742 0.210838 8.43367 0.611736C8.29181 1.38211 7.73844 1.97536 7.09778 2.66226C7.0114 2.75481 6.92437 2.84822 6.83734 2.94299C6.1759 3.64118 5.8797 4.64576 6.04496 5.6318C6.20772 6.60471 6.78646 7.43044 7.63248 7.89738Z" fill="#F23A4F"/>
<path d="M10.2231 6.23435C10.4852 6.86051 10.9528 7.434 11.5399 7.84914C11.6836 7.95078 11.8527 8 12.0206 8C12.2598 8 12.4964 7.90008 12.6525 7.70994C12.9184 7.38649 12.8511 6.92434 12.5024 6.67773C12.1499 6.42842 11.8585 6.07257 11.7032 5.70125C11.3937 4.96192 11.6869 4.22517 12.6838 3.23764C13.3905 2.53747 13.8422 1.71284 13.99 0.8526C14.0589 0.45096 13.764 0.0733786 13.3309 0.0093028C12.898 -0.054773 12.491 0.218961 12.4219 0.620724C12.3228 1.19753 12.021 1.73923 11.5248 2.23084C11.0041 2.74652 9.42002 4.31589 10.2231 6.23435Z" fill="#F23A4F"/>
</svg>
