<svg width="27" height="19" viewBox="0 0 27 19" fill="none" xmlns="http://www.w3.org/2000/svg">
<path fill-rule="evenodd" clip-rule="evenodd" d="M17 15.5C17 13.5701 18.5701 12 20.5 12C22.4299 12 24 13.5701 24 15.5C24 17.4299 22.4303 19 20.5 19C18.5701 19 17 17.4299 17 15.5ZM18.75 15.5C18.75 16.4651 19.5349 17.25 20.5 17.25C21.4651 17.25 22.25 16.4652 22.25 15.5C22.25 14.5349 21.4651 13.75 20.5 13.75C19.5349 13.75 18.75 14.5349 18.75 15.5Z" fill="#F23A4F"/>
<path fill-rule="evenodd" clip-rule="evenodd" d="M5 15.5C5 13.5701 6.57006 12 8.5 12C10.4299 12 12 13.5701 12 15.5C12 17.4299 10.4299 19 8.5 19C6.57006 19 5 17.4299 5 15.5ZM6.75 15.5C6.75 16.4651 7.53489 17.25 8.5 17.25C9.46511 17.25 10.25 16.4652 10.25 15.5C10.25 14.5349 9.46483 13.75 8.5 13.75C7.53489 13.75 6.75 14.5349 6.75 15.5Z" fill="#F23A4F"/>
<path d="M22.38 2.44554C22.2316 2.17235 21.9297 2 21.5996 2H17V3.61813H21.061L23.439 8L25 7.2729L22.38 2.44554Z" fill="#F23A4F"/>
<rect x="12" y="15" width="6" height="2" fill="#F23A4F"/>
<path d="M6.08533 15H2.91462C2.40941 15 2 15.4477 2 16C2 16.5524 2.40946 17 2.91462 17H6.08538C6.59059 17 7 16.5523 7 16C7 15.4476 6.59054 15 6.08533 15Z" fill="#F23A4F"/>
<path d="M26.8184 9.17975L25.1168 7.05013C24.9533 6.845 24.701 6.72506 24.4337 6.72506H18.1476V0.840613C18.1476 0.376281 17.7604 0 17.2826 0H2.86503C2.38721 0 2 0.376333 2 0.840613C2 1.30489 2.38726 1.68123 2.86503 1.68123H16.4175V7.56568C16.4175 8.03001 16.8048 8.40629 17.2826 8.40629H24.0101L25.2699 9.98331V14.3188H22.8766C22.3987 14.3188 22.0115 14.6951 22.0115 15.1594C22.0115 15.6237 22.3988 16 22.8766 16H26.1349C26.6127 16 26.9999 15.6237 27 15.1594V9.69535C27 9.50872 26.936 9.32714 26.8184 9.17975Z" fill="#F23A4F"/>
<path d="M6.09098 10H1.90908C1.40693 10 1 10.4477 1 11C1 11.5524 1.40698 12 1.90908 12H6.09092C6.59307 12 7 11.5523 7 11C7.00006 10.4477 6.59307 10 6.09098 10Z" fill="#F23A4F"/>
<path d="M8.14559 7H0.854409C0.382509 7 0 7.44767 0 8.00003C0 8.55239 0.382509 9 0.854409 9H8.14559C8.61754 9 9 8.55233 9 8.00003C9 7.44774 8.61754 7 8.14559 7Z" fill="#F23A4F"/>
<path d="M9.14559 3H1.85441C1.38246 3 1 3.44769 1 4C1 4.55237 1.38251 5 1.85441 5H9.14559C9.61754 5 10 4.55231 10 4C10.0001 3.44769 9.61754 3 9.14559 3Z" fill="#F23A4F"/>
</svg>
