<svg width="40" height="40" viewBox="0 0 40 40" fill="none" xmlns="http://www.w3.org/2000/svg">
<mask id="mask0" mask-type="alpha" maskUnits="userSpaceOnUse" x="0" y="0" width="40" height="40">
<path fill-rule="evenodd" clip-rule="evenodd" d="M19.8206 0.662476C25.2189 0.662476 29.5952 5.03882 29.5952 10.4372C34.9935 10.4372 39.3698 14.8134 39.3698 20.2118C39.3698 25.6101 34.9935 29.9864 29.5952 29.9864C29.5952 35.3848 25.2189 39.761 19.8206 39.761C14.4222 39.761 10.0459 35.3848 10.0459 29.9864C4.64758 29.9864 0.27124 25.6101 0.27124 20.2118C0.27124 14.8134 4.64758 10.4372 10.0459 10.4372C10.0459 5.03882 14.4222 0.662476 19.8206 0.662476ZM25.8206 20.2118L19.8206 14.2118L13.8206 20.2118L19.8206 26.2118L25.8206 20.2118Z" fill="white"/>
</mask>
<g mask="url(#mask0)">
<path d="M29.5952 10.4372H27.5952V12.4372H29.5952V10.4372ZM29.5952 29.9864V27.9864H27.5952V29.9864H29.5952ZM10.0459 29.9864H12.0459V27.9864H10.0459V29.9864ZM10.0459 10.4372V12.4372H12.0459V10.4372H10.0459ZM25.8206 20.2118L27.2348 21.626L28.649 20.2118L27.2348 18.7976L25.8206 20.2118ZM19.8206 14.2118L21.2348 12.7976L19.8206 11.3834L18.4063 12.7976L19.8206 14.2118ZM13.8206 20.2118L12.4063 18.7976L10.9921 20.2118L12.4063 21.626L13.8206 20.2118ZM19.8206 26.2118L18.4063 27.626L19.8206 29.0402L21.2348 27.626L19.8206 26.2118ZM19.8206 2.66248C24.1143 2.66248 27.5952 6.14337 27.5952 10.4372H31.5952C31.5952 3.93427 26.3235 -1.33752 19.8206 -1.33752V2.66248ZM29.5952 12.4372C33.8889 12.4372 37.3698 15.918 37.3698 20.2118H41.3698C41.3698 13.7089 36.0981 8.43717 29.5952 8.43717V12.4372ZM37.3698 20.2118C37.3698 24.5056 33.8889 27.9864 29.5952 27.9864V31.9864C36.0981 31.9864 41.3698 26.7147 41.3698 20.2118H37.3698ZM27.5952 29.9864C27.5952 34.2802 24.1143 37.761 19.8206 37.761V41.761C26.3235 41.761 31.5952 36.4893 31.5952 29.9864H27.5952ZM19.8206 37.761C15.5268 37.761 12.0459 34.2802 12.0459 29.9864H8.04593C8.04593 36.4893 13.3176 41.761 19.8206 41.761V37.761ZM10.0459 27.9864C5.75214 27.9864 2.27124 24.5055 2.27124 20.2118H-1.72876C-1.72876 26.7147 3.54303 31.9864 10.0459 31.9864V27.9864ZM2.27124 20.2118C2.27124 15.918 5.75214 12.4372 10.0459 12.4372V8.43717C3.54303 8.43717 -1.72876 13.7089 -1.72876 20.2118H2.27124ZM12.0459 10.4372C12.0459 6.14337 15.5268 2.66248 19.8206 2.66248V-1.33752C13.3176 -1.33752 8.04593 3.93427 8.04593 10.4372H12.0459ZM27.2348 18.7976L21.2348 12.7976L18.4063 15.626L24.4063 21.626L27.2348 18.7976ZM18.4063 12.7976L12.4063 18.7976L15.2348 21.626L21.2348 15.626L18.4063 12.7976ZM12.4063 21.626L18.4063 27.626L21.2348 24.7976L15.2348 18.7976L12.4063 21.626ZM21.2348 27.626L27.2348 21.626L24.4063 18.7976L18.4063 24.7976L21.2348 27.626Z" fill="#EB384C"/>
</g>
</svg>
